<svg width="137" height="137" viewBox="0 0 137 137" fill="none" xmlns="http://www.w3.org/2000/svg">
<rect width="137" height="137" rx="20" fill="#1C2321"/>
<path d="M18.3195 63V19.1399H28.9205V37.6862H29.4987L43.9974 19.1399H56.483L40.9349 38.7142L56.7614 63H44.083L33.1608 45.7601L28.9205 51.1141V63H18.3195Z" fill="#AF69F0"/>
<path d="M83.9009 32.2893C83.7581 30.7188 83.1228 29.4981 81.9949 28.6272C80.8812 27.742 79.2893 27.2994 77.2191 27.2994C75.8485 27.2994 74.7063 27.4779 73.7925 27.8348C72.8788 28.1917 72.1934 28.6843 71.7366 29.3125C71.2797 29.9264 71.0441 30.6332 71.0298 31.4327C71.0013 32.0895 71.1298 32.6677 71.4153 33.1674C71.7151 33.6671 72.1435 34.1097 72.7003 34.4952C73.2714 34.8664 73.9567 35.1948 74.7562 35.4803C75.5558 35.7659 76.4552 36.0157 77.4547 36.2299L81.2239 37.0865C83.3941 37.5577 85.3072 38.1859 86.9634 38.9712C88.6339 39.7564 90.033 40.6916 91.1609 41.7767C92.3031 42.8617 93.1669 44.111 93.7523 45.5245C94.3377 46.9379 94.6375 48.5227 94.6518 50.2788C94.6375 53.0487 93.9379 55.4258 92.553 57.4104C91.1681 59.395 89.1764 60.9155 86.5779 61.972C83.9937 63.0286 80.8741 63.5568 77.2191 63.5568C73.5498 63.5568 70.3517 63.0071 67.6247 61.9078C64.8977 60.8084 62.7775 59.138 61.2641 56.8964C59.7507 54.6549 58.9726 51.8208 58.9297 48.3942H69.081C69.1666 49.8077 69.545 50.9856 70.216 51.9279C70.8871 52.8702 71.8079 53.5841 72.9787 54.0695C74.1637 54.5549 75.5343 54.7976 77.0906 54.7976C78.5183 54.7976 79.7319 54.6049 80.7313 54.2194C81.745 53.8339 82.5231 53.2985 83.0657 52.6132C83.6082 51.9279 83.8866 51.1426 83.9009 50.2574C83.8866 49.4293 83.6296 48.7226 83.1299 48.1372C82.6302 47.5376 81.8592 47.0236 80.817 46.5953C79.789 46.1527 78.4755 45.7458 76.8764 45.3746L72.2934 44.3038C68.4956 43.4328 65.5045 42.0265 63.32 40.0848C61.1356 38.1288 60.0505 35.4875 60.0648 32.1608C60.0505 29.4481 60.7787 27.0709 62.2492 25.0293C63.7198 22.9876 65.7543 21.3957 68.3528 20.2535C70.9513 19.1113 73.9139 18.5402 77.2405 18.5402C80.6385 18.5402 83.5868 19.1184 86.0853 20.2749C88.5982 21.4171 90.547 23.0233 91.9319 25.0935C93.3168 27.1638 94.0236 29.5624 94.0521 32.2893H83.9009Z" fill="#E8565C"/>
<path d="M18.3195 73.1655H31.4476L42.5839 100.321H43.0979L54.2343 73.1655H67.3623V117.026H57.0398V90.0842H56.6757L46.139 116.747H39.5428L29.0061 89.9343H28.642V117.026H18.3195V73.1655Z" fill="#FAA916"/>
<mask id="mask0_161_778" style="mask-type:alpha" maskUnits="userSpaceOnUse" x="0" y="0" width="137" height="137">
<rect width="137" height="137" rx="20" fill="#1C2321"/>
</mask>
<g mask="url(#mask0_161_778)">
<rect x="86" y="105" width="17" height="42" fill="#AF69F0"/>
<rect x="103" y="89" width="17" height="58" fill="#E8565C"/>
<rect x="120" y="73" width="17" height="74" fill="#FAA916"/>
</g>
</svg>
